<?xml version="1.0" encoding="utf-8"?>
<!-- Generator: Adobe Illustrator 24.3.0, SVG Export Plug-In . SVG Version: 6.00 Build 0)  -->
<svg version="1.1" id="圖層_1" xmlns:v="https://vecta.io/nano"
	 xmlns="http://www.w3.org/2000/svg" xmlns:xlink="http://www.w3.org/1999/xlink" x="0px" y="0px" viewBox="0 0 155.9 110"
	 style="enable-background:new 0 0 155.9 110;" xml:space="preserve" width="100" height="70">
<style type="text/css">
	.st0{fill:#FF0000;}
	.st1{fill:#FFFFFF;}
	.st2{display:none;}
	.st3{display:inline;fill:#282828;}
</style>
<path class="st0" d="M152.5,17.5c-1.8-6.7-7.1-12-13.8-13.8c-12.1-3.3-60.8-3.3-60.8-3.3S29.2,0.5,17.1,3.8
	c-6.7,1.8-12,7.1-13.8,13.8c-3.7,21.5-5.1,54.3,0.1,74.9c1.8,6.7,7.1,12,13.8,13.8c12.1,3.3,60.8,3.3,60.8,3.3s48.7,0,60.8-3.3
	c6.7-1.8,12-7.1,13.8-13.8C156.4,71,157.6,38.2,152.5,17.5z"/>
<path class="st1" d="M65.4,78.4L105.8,55L65.4,31.6V78.4z"/>
<g class="st2">
	<path class="st3" d="M81.9,99.7c-3.1-2.1-5.3-5.3-6.6-9.7s-1.9-10.2-1.9-17.5v-9.9c0-7.3,0.7-13.3,2.2-17.7c1.5-4.5,3.8-7.7,7-9.7
		s7.3-3.1,12.4-3.1c5,0,9.1,1,12.1,3.1c3,2.1,5.3,5.3,6.7,9.7s2.1,10.3,2.1,17.6v9.9c0,7.3-0.7,13.1-2.1,17.5s-3.6,7.6-6.7,9.7
		c-3.1,2-7.3,3.1-12.5,3.1C89.2,102.8,85,101.7,81.9,99.7z M99.2,89c0.9-2.2,1.3-5.9,1.3-10.9V56.8c0-4.9-0.4-8.5-1.3-10.7
		c-0.9-2.3-2.4-3.4-4.5-3.4s-3.5,1.1-4.4,3.4S89,51.9,89,56.8v21.3c0,5,0.4,8.7,1.2,10.9s2.3,3.3,4.5,3.3
		C96.8,92.3,98.3,91.2,99.2,89z M318.4,72.7v3.5l0.4,9.9c0.3,2.2,0.8,3.8,1.6,4.8s2.1,1.5,3.8,1.5c2.3,0,3.9-0.9,4.7-2.7
		c0.9-1.8,1.3-4.8,1.4-8.9l13.3,0.8c0.1,0.6,0.1,1.4,0.1,2.4c0,6.3-1.7,11-5.2,14.1s-8.3,4.7-14.6,4.7c-7.6,0-12.9-2.4-15.9-7.1
		s-4.6-12.1-4.6-22V61.6c0.3-17,3.3-29.5,20.9-29.5c5.3,0,9.3,1,12.1,2.9s4.8,4.9,6,9s1.7,9.7,1.7,16.9v11.7L318.4,72.7L318.4,72.7z
		 M320.4,43.9c-0.8,1-1.3,2.5-1.6,4.7s-0.4,10-0.4,10v4.9h11.2v-4.9c0,4.9-0.1-7.7-0.4-10s-0.8-3.9-1.6-4.8s-2-1.4-3.6-1.4
		C322.3,42.5,321.1,43,320.4,43.9z M44.5,71.4L27,8.2h15.3c0,0,7.1,31.7,9.6,46.6h0.4C55.1,39,62.1,8.2,62.1,8.2h15.3L59.7,71.3
		v30.3H44.6V71.4H44.5z"/>
	<path id="A" class="st3" d="M165.5,33.4v68.3h-12l-1.3-8.4h-0.3c-3.3,6.3-8.2,9.5-14.7,9.5c-11.8,0-13.1-10-13.2-18.4v-51h15.4
		v50.1c0,3,0.3,5.2,1,6.5c1.4,2.8,5.1,2.1,7.1,0.7c1.2-0.8,2.1-1.8,2.7-3.1V33.4H165.5z"/>
	<path class="st3" d="M207.3,20.6H192v81.1h-15V20.6h-15.3V8.2h45.5L207.3,20.6L207.3,20.6z M295.2,44.3c-0.9-4.3-2.4-7.4-4.5-9.4
		c-2.1-1.9-4.9-2.9-8.6-2.9c-2.8,0-5.6,0.8-7.9,2.4c-2.5,1.6-4.3,3.7-5.7,6.3h-0.1v-36h-14.8v96.9h12.7l1.6-6.5h0.3
		c1.2,2.3,3.1,4.2,5.3,5.5c2.4,1.3,5,2,7.9,2c5.2,0,9-2.4,11.5-7.2c2.4-4.8,3.7-12.3,3.7-22.4V62.2
		C296.6,54.6,296.1,48.6,295.2,44.3z M281.1,72.2c0,5-0.2,8.9-0.6,11.7s-1.1,4.8-2.1,6s-2.3,1.8-3.9,1.8c-3.1-0.1-4.9-1.5-6.1-3.6
		V49.3c0.5-1.9,1.4-3.4,2.7-4.6c2.2-2.5,6-2.5,7.7,0c0.9,1.2,1.4,3.3,1.8,6.2c0.3,2.9,0.5,7,0.5,12.4V72.2z"/>
</g>
<g class="st2">
	<path id="A_1_" class="st3" d="M244.4,33.4v68.3h-12l-1.3-8.4h-0.3c-3.3,6.3-8.2,9.5-14.7,9.5c-11.8,0-13.1-10-13.2-18.4v-51h15.4
		v50.1c0,3,0.3,5.2,1,6.5c1.4,2.8,5.1,2.1,7.1,0.7c1.2-0.8,2.1-1.8,2.7-3.1V33.4H244.4z"/>
</g>
</svg>
